# Blender v2.79 (sub 0) OBJ File: ''
# www.blender.org
mtllib bb_s_switch.mtl
o strong_switch_Cube
v 1.000000 -0.200000 -1.000000
v 1.000000 -0.200000 1.000000
v -1.000000 -0.200000 1.000000
v -1.000000 -0.200000 -1.000000
v 1.000000 0.200000 -0.999999
v -1.000000 0.200000 -1.000000
v -1.000000 0.200000 1.000000
v 0.999999 0.200000 1.000001
v -0.671751 0.200000 0.742462
v -0.671751 0.309043 0.742462
v -0.742462 0.309043 0.671751
v -0.742462 0.200000 0.671751
v 0.671751 0.309043 -0.742462
v 0.671751 0.200000 -0.742462
v 0.742462 0.309043 -0.671751
v 0.742462 0.200000 -0.671751
v -0.742462 0.200000 -0.671751
v -0.742462 0.309043 -0.671751
v -0.671751 0.309043 -0.742462
v -0.671751 0.200000 -0.742462
v 0.742462 0.309043 0.671751
v 0.742462 0.200000 0.671751
v 0.671751 0.309043 0.742462
v 0.671751 0.200000 0.742462
vt 0.227907 0.958501
vt 0.227907 0.597930
vt 0.739606 0.597930
vt 0.739606 0.958501
vt 0.740034 0.598171
vt 0.740034 0.958724
vt 0.226521 0.958723
vt 0.226521 0.598171
vt 0.740042 0.597969
vt 0.847285 0.597969
vt 0.847285 0.959251
vt 0.740042 0.959251
vt 0.226662 0.958252
vt 0.119267 0.958252
vt 0.119267 0.598263
vt 0.226662 0.598263
vt 0.119267 0.958044
vt 0.227358 0.958044
vt 0.847307 0.959291
vt 0.739734 0.959291
vt 0.739734 0.598078
vt 0.847307 0.598078
vt 1.324235 0.704222
vt 1.324235 0.677755
vt 1.349385 0.677755
vt 1.349385 0.704222
vt 1.393057 0.039795
vt 1.420481 0.039795
vt 1.420481 0.525231
vt 1.393057 0.525231
vt 1.360790 0.723656
vt 1.360790 0.750123
vt 1.335640 0.750123
vt 1.335640 0.723656
vt 1.284362 0.506106
vt 1.256938 0.506106
vt 1.256938 0.020669
vt 1.284362 0.020669
vt 1.302857 0.028319
vt 1.302857 0.513756
vt 1.277707 0.513756
vt 1.277707 0.028319
vt 1.437234 0.465206
vt 1.437234 0.950642
vt 1.412084 0.950642
vt 1.412084 0.465206
vt 1.336635 0.594471
vt 1.336635 0.568005
vt 1.361784 0.568005
vt 1.361784 0.594471
vt 1.339459 0.043620
vt 1.366883 0.043620
vt 1.366883 0.529056
vt 1.339459 0.529056
vt 1.375908 0.615818
vt 1.375908 0.642285
vt 1.350758 0.642285
vt 1.350758 0.615818
vt 1.367617 0.058920
vt 1.395041 0.058920
vt 1.395041 0.544356
vt 1.367617 0.544356
vt 1.520076 0.457555
vt 1.520076 0.942992
vt 1.494926 0.942992
vt 1.494926 0.457555
vt 1.356001 0.515669
vt 1.356001 0.030232
vt 1.381151 0.030232
vt 1.381151 0.515669
vn 0.0000 -1.0000 -0.0000
vn -0.0000 1.0000 0.0000
vn 1.0000 0.0000 0.0000
vn -0.0000 -0.0000 1.0000
vn -1.0000 -0.0000 0.0000
vn 0.0000 0.0000 -1.0000
vn -0.7071 0.0000 0.7071
vn -0.7071 0.0000 -0.7071
vn 0.7071 0.0000 -0.7071
vn 0.7071 0.0000 0.7071
usemtl Material.003
s 1
f 1/1/1 2/2/1 3/3/1 4/4/1
f 5/5/2 6/6/2 7/7/2 8/8/2
f 1/9/3 5/10/3 8/11/3 2/12/3
f 2/13/4 8/14/4 7/15/4 3/16/4
f 3/16/5 7/15/5 6/17/5 4/18/5
f 5/19/6 1/20/6 4/21/6 6/22/6
usemtl Material.004
f 9/23/7 10/24/7 11/25/7 12/26/7
f 12/27/8 11/28/8 13/29/8 14/30/8
f 14/31/9 13/32/9 15/33/9 16/34/9
f 16/35/10 15/36/10 10/37/10 9/38/10
f 12/39/1 14/40/1 16/41/1 9/42/1
f 13/43/2 11/44/2 10/45/2 15/46/2
f 17/47/8 18/48/8 19/49/8 20/50/8
f 20/51/9 19/52/9 21/53/9 22/54/9
f 22/55/10 21/56/10 23/57/10 24/58/10
f 24/59/7 23/60/7 18/61/7 17/62/7
f 20/63/1 22/64/1 24/65/1 17/66/1
f 21/67/2 19/68/2 18/69/2 23/70/2
